<?xml version="1.0" encoding="UTF-8"?>
<svg version="1.1" xmlns="http://www.w3.org/2000/svg" width="512" height="512">
<path d="M0 0 C168.96 0 337.92 0 512 0 C512 168.96 512 337.92 512 512 C343.04 512 174.08 512 0 512 C0 343.04 0 174.08 0 0 Z " fill="#2C0C3D" transform="translate(0,0)"/>
<path d="M0 0 C0.68009125 -0.0065712 1.3601825 -0.0131424 2.06088257 -0.01991272 C4.31117877 -0.03961812 6.5614082 -0.05130401 8.81176758 -0.0612793 C9.96763083 -0.06739259 9.96763083 -0.06739259 11.14684486 -0.07362938 C15.22793941 -0.09448147 19.30900045 -0.10878514 23.39013672 -0.11816406 C27.59214219 -0.12920811 31.79361513 -0.16358674 35.99543285 -0.20333576 C39.23752278 -0.22956727 42.47948727 -0.2378618 45.72167397 -0.24144554 C47.26973364 -0.2462971 48.81778826 -0.25787009 50.36574364 -0.27648354 C59.6088287 -0.38069133 67.01647286 -0.44666724 74.29223633 5.95825195 C74.73825195 6.52543945 75.18426758 7.09262695 75.64379883 7.67700195 C76.33602539 8.5277832 76.33602539 8.5277832 77.04223633 9.39575195 C81.05040973 15.2165388 81.36565875 21.22604802 80.65258789 28.13452148 C79.56681889 33.91285702 76.00489234 38.80472586 72.8737793 43.6628418 C69.9832738 48.19074347 67.24059292 52.80935399 64.46447754 57.40792847 C63.38658086 59.18892815 62.30372127 60.96680545 61.21899414 62.74365234 C53.47168063 75.43469706 45.89850482 88.22789565 38.32519531 101.02325439 C35.32661806 106.08669626 32.30525703 111.13620039 29.26879883 116.17700195 C30.80419312 116.1612915 30.80419312 116.1612915 32.37060547 116.14526367 C36.19299784 116.10887696 40.01537509 116.08603395 43.83789062 116.06713867 C45.48765646 116.05712345 47.13740474 116.04350735 48.78710938 116.02612305 C51.16776888 116.00167653 53.5481923 115.99047392 55.92895508 115.98168945 C56.65840836 115.97136688 57.38786163 115.96104431 58.13941956 115.95040894 C65.48877407 115.94882337 71.41070899 117.56531421 77.26879883 122.17700195 C82.93905798 127.86079394 85.5468806 132.60952076 85.76879883 140.80200195 C85.82036133 141.92864258 85.87192383 143.0552832 85.92504883 144.21606445 C85.13862868 153.53099126 77.26370941 162.33491555 72.01879883 169.67700195 C65.95099217 178.28234534 60.02380834 186.96433272 54.20629883 195.73950195 C48.28431693 204.66549237 42.30631735 213.54873011 36.2487793 222.38354492 C32.36729467 228.06028045 28.53317711 233.76681544 24.72583008 239.4934082 C23.99760544 240.5883963 23.99760544 240.5883963 23.25466919 241.70550537 C20.84322765 245.33304187 18.43519009 248.96278579 16.03149414 252.59545898 C11.47537075 259.46674222 6.84033388 266.23995147 1.94628906 272.87792969 C-0.81885801 276.66768227 -3.33084042 280.60536781 -5.87182617 284.5480957 C-8.0975066 287.69490858 -10.24701067 290.4349067 -13.73120117 292.17700195 C-20.86350886 292.87854041 -20.86350886 292.87854041 -24.66870117 289.80200195 C-27.98077743 285.58663217 -28.13657643 282.41389182 -27.73120117 277.17700195 C-27.11553837 273.74566434 -26.24167082 270.39984933 -25.34448242 267.0324707 C-25.09093491 266.04906204 -24.83738739 265.06565338 -24.57615662 264.05244446 C-23.74088241 260.82075411 -22.89230041 257.59271636 -22.04370117 254.36450195 C-21.45904588 252.1121562 -20.87540212 249.85954766 -20.29272461 247.60668945 C-19.07174899 242.88873395 -17.84633805 238.17196052 -16.6184082 233.45581055 C-14.72431543 226.16715131 -12.86206793 218.87060194 -11.00854492 211.5715332 C-10.71051468 210.39817917 -10.41248444 209.22482513 -10.10542297 208.01591492 C-9.23040558 204.56968079 -8.35578886 201.12334515 -7.48120117 197.67700195 C-6.39435033 193.39531982 -5.30573143 189.11409384 -4.21557617 184.83325195 C-3.97761826 183.89500076 -3.73966034 182.95674957 -3.49449158 181.99006653 C-3.2757991 181.13200912 -3.05710663 180.27395172 -2.83178711 179.38989258 C-2.64227478 178.64437134 -2.45276245 177.8988501 -2.25750732 177.1307373 C-1.80807363 175.46236522 -1.27759444 173.81618176 -0.73120117 172.17700195 C-1.31256332 172.1858844 -1.89392548 172.19476685 -2.49290466 172.20391846 C-8.57671212 172.29282688 -14.6603332 172.35291563 -20.74462891 172.39672852 C-23.01130681 172.41676902 -25.27793349 172.44400906 -27.54443359 172.47875977 C-30.81384973 172.52761063 -34.08257874 172.55004708 -37.35229492 172.56762695 C-38.85752968 172.59859467 -38.85752968 172.59859467 -40.39317322 172.63018799 C-48.27056193 172.63266628 -54.32892087 170.96068583 -60.48120117 165.92700195 C-66.70161604 158.32427267 -69.61104998 152.09847794 -68.73120117 142.17700195 C-67.86843727 138.56266464 -66.6124086 135.14757506 -65.29370117 131.67700195 C-64.55725219 129.65384527 -63.82160667 127.63039597 -63.08666992 125.60668945 C-62.70043457 124.55835938 -62.31419922 123.5100293 -61.91625977 122.42993164 C-59.90630701 116.91270657 -58.01270258 111.35563441 -56.10620117 105.80200195 C-52.95276753 96.65550826 -49.74338156 87.52953492 -46.51916504 78.40783691 C-44.4189571 72.46185703 -42.32791044 66.51265214 -40.23660278 60.5635376 C-39.39525055 58.17286791 -38.55151069 55.78304975 -37.70751953 53.39331055 C-35.11049127 46.02915155 -32.53895056 38.66105304 -30.09838867 31.2434082 C-29.50731323 29.46728149 -29.50731323 29.46728149 -28.90429688 27.65527344 C-28.18847313 25.49395465 -27.48547241 23.32832567 -26.79833984 21.15771484 C-24.23497699 13.46246213 -20.73510131 7.46468866 -13.54370117 3.30200195 C-12.89014648 2.91270508 -12.2365918 2.5234082 -11.56323242 2.12231445 C-7.63116493 0.09340116 -4.3631926 0.03490583 0 0 Z " fill="#6A6BDF" transform="translate(240.731201171875,112.822998046875)"/>
<path d="M0 0 C0.33 0 0.66 0 1 0 C1.22036864 3.85645121 0.60355101 6.49223216 -1 10 C-1.66 10 -2.32 10 -3 10 C-2.505 11.98 -2.505 11.98 -2 14 C-1.67 13.34 -1.34 12.68 -1 12 C-0.34 12.33 0.32 12.66 1 13 C0.72416343 19.85453872 -0.2738674 24.24143144 -4 30 C-4.67966676 31.66140763 -5.34938905 33.32700041 -6 35 C-6.66 35.99 -7.32 36.98 -8 38 C-7.979375 39.11375 -7.95875 40.2275 -7.9375 41.375 C-8.00732178 45.42466314 -8.90947562 46.65516099 -11 50 C-11.35543427 52.33006911 -11.6913753 54.66327016 -12 57 C-12.66 57.66 -13.32 58.32 -14 59 C-14.56452837 60.96173607 -15.05563537 62.94510426 -15.5 64.9375 C-16.32090174 68.60925071 -16.89422543 70.84133814 -19 74 C-18.95875 74.94875 -18.9175 75.8975 -18.875 76.875 C-19.03356924 80.8392309 -20.5379909 81.99942641 -23 85 C-23.16687448 87.58354218 -23.16687448 87.58354218 -23 90 C-23.66 90.99 -24.32 91.98 -25 93 C-25.9914628 95.27453232 -26.86860492 97.46889887 -27.46484375 99.87890625 C-28.22888991 102.90720601 -29.26990016 105.82810846 -30.28125 108.78125 C-31.0165151 110.94811845 -31.0165151 110.94811845 -31.47265625 113.00390625 C-32.07481361 115.28318336 -32.9539335 117.29592314 -33.9375 119.4375 C-34.29328125 120.22511719 -34.6490625 121.01273437 -35.015625 121.82421875 C-35.34046875 122.54222656 -35.6653125 123.26023437 -36 124 C-37.44498263 127.34627558 -38.34033623 130.41896813 -39 134 C-39.33 134.99 -39.66 135.98 -40 137 C-39.34 137 -38.68 137 -38 137 C-37.67 141.29 -37.34 145.58 -37 150 C-35.453125 150.309375 -33.90625 150.61875 -32.3125 150.9375 C-30.54166667 151.29166667 -28.77083333 151.64583333 -27 152 C-26.06542969 152.18691406 -25.13085938 152.37382812 -24.16796875 152.56640625 C-23.45253906 152.70949219 -22.73710937 152.85257813 -22 153 C-22 152.34 -22 151.68 -22 151 C-21.01 151 -20.02 151 -19 151 C-19 151.66 -19 152.32 -19 153 C-12.28816801 153.88381939 -12.28816801 153.88381939 -5.5625 153.5 C-1.33323074 152.90641835 2.42305045 153.33134957 6.64453125 153.84375 C9.01995649 154.2006195 9.01995649 154.2006195 11 153 C16.52292208 153.71653071 21.49706353 154.79111631 25.875 158.3125 C27.70766738 164.3195764 26.22545047 169.94358295 25 176 C24.82855469 176.89976562 24.65710938 177.79953125 24.48046875 178.7265625 C24 181 24 181 23 184.3125 C22.24457703 187.09812221 21.81967918 189.36377756 21.5625 192.1875 C20.98331883 196.11306128 20.30920967 197.01727084 18 200 C17.59952556 202.32275177 17.2602896 204.65739357 17 207 C16.67 207.66 16.34 208.32 16 209 C15.87625 209.845625 15.7525 210.69125 15.625 211.5625 C14.83944791 215.88303648 13.44307863 219.86135941 12 224 C11.4553392 225.60315255 10.91358784 227.20729702 10.375 228.8125 C10.13523438 229.52019531 9.89546875 230.22789062 9.6484375 230.95703125 C8.15044542 235.67660871 7.39524668 240.46437328 6.59765625 245.34375 C6.02606997 247.88413345 5.23673797 249.72796244 4 252 C1.84627981 256.99786743 0.71550198 261.5826279 0 267 C-0.37125 267.886875 -0.7425 268.77375 -1.125 269.6875 C-2.14084484 271.92921285 -2.14084484 271.92921285 -1.9375 274.1875 C-1.08735974 276.2729616 -1.08735974 276.2729616 1.5625 277.25 C2.7690625 277.62125 2.7690625 277.62125 4 278 C4 278.66 4 279.32 4 280 C0.3226295 279.79570164 -0.80084985 279.22067989 -3.3125 276.4375 C-6.82033862 269.29190282 -4.5659221 262.18423164 -2.61328125 254.85546875 C-2.35973373 253.87206009 -2.10618622 252.88865143 -1.84495544 251.8754425 C-1.00968124 248.64375215 -0.16109924 245.41571441 0.6875 242.1875 C1.27215529 239.93515425 1.85579905 237.68254571 2.43847656 235.4296875 C3.65945218 230.711732 4.88486313 225.99495856 6.11279297 221.27880859 C8.00688574 213.99014936 9.86913324 206.69359998 11.72265625 199.39453125 C12.02068649 198.22117722 12.31871674 197.04782318 12.6257782 195.83891296 C13.50079559 192.39267884 14.37541232 188.9463432 15.25 185.5 C16.33685084 181.21831787 17.42546974 176.93709189 18.515625 172.65625 C18.75358292 171.71799881 18.99154083 170.77974762 19.23670959 169.81306458 C19.45540207 168.95500717 19.67409454 168.09694977 19.89941406 167.21289062 C20.08892639 166.46736938 20.27843872 165.72184814 20.47369385 164.95373535 C20.92312754 163.28536327 21.45360673 161.63917981 22 160 C21.41863785 160.00888245 20.8372757 160.01776489 20.23829651 160.0269165 C14.15448905 160.11582493 8.07086797 160.17591367 1.98657227 160.21972656 C-0.28010563 160.23976707 -2.54673232 160.26700711 -4.81323242 160.30175781 C-8.08264856 160.35060868 -11.35137757 160.37304512 -14.62109375 160.390625 C-16.12632851 160.42159271 -16.12632851 160.42159271 -17.66197205 160.45318604 C-25.53936075 160.45566433 -31.5977197 158.78368388 -37.75 153.75 C-43.97041487 146.14727071 -46.8798488 139.92147599 -46 130 C-45.1372361 126.38566268 -43.88120743 122.97057311 -42.5625 119.5 C-41.82605102 117.47684331 -41.0904055 115.45339402 -40.35546875 113.4296875 C-39.9692334 112.38135742 -39.58299805 111.33302734 -39.18505859 110.25292969 C-37.17510584 104.73570461 -35.28150141 99.17863246 -33.375 93.625 C-30.22156635 84.47850631 -27.01218039 75.35253297 -23.78796387 66.23083496 C-21.68753338 60.28422502 -19.59576259 54.33456097 -17.50402832 48.3848877 C-16.95055769 46.81069444 -16.39692298 45.23655887 -15.84313965 43.66247559 C-12.9370738 35.40105805 -10.03795691 27.13761026 -7.19140625 18.85546875 C-6.77479736 17.64431396 -6.35818848 16.43315918 -5.92895508 15.18530273 C-5.15916585 12.94224945 -4.39195891 10.69830783 -3.62768555 8.45336914 C-3.29164307 7.47360107 -2.95560059 6.49383301 -2.609375 5.484375 C-2.32030273 4.63584961 -2.03123047 3.78732422 -1.73339844 2.91308594 C-1 1 -1 1 0 0 Z " fill="#A35DE0" transform="translate(218,125)"/>
<path d="M0 0 C0.33 0 0.66 0 1 0 C1 2.31 1 4.62 1 7 C1.66 7 2.32 7 3 7 C2.46608592 11.69617565 1.19271653 14.89656662 -1.21875 18.9453125 C-1.54823135 19.50404053 -1.87771271 20.06276855 -2.21717834 20.63842773 C-3.30232675 22.47288093 -4.40090589 24.29887394 -5.5 26.125 C-6.27014105 27.41999936 -7.0395793 28.71541691 -7.80834961 30.01123047 C-13.68829786 39.89987146 -19.66210353 49.73310332 -25.65405273 59.55419922 C-33.22270398 71.96500134 -40.61878526 84.47703498 -48 97 C-46.46460571 96.98428955 -46.46460571 96.98428955 -44.89819336 96.96826172 C-41.07580099 96.93187501 -37.25342374 96.909032 -33.4309082 96.89013672 C-31.78114237 96.88012149 -30.13139409 96.8665054 -28.48168945 96.84912109 C-26.10102995 96.82467458 -23.72060653 96.81347197 -21.33984375 96.8046875 C-20.61039047 96.79436493 -19.88093719 96.78404236 -19.12937927 96.77340698 C-11.78002476 96.77182142 -5.85808983 98.38831226 0 103 C5.67025915 108.68379199 8.27808177 113.43251881 8.5 121.625 C8.39789769 129.12559281 6.17014153 133.89759431 2 140 C1.54753906 140.72574219 1.09507812 141.45148438 0.62890625 142.19921875 C-2.36645363 146.79956897 -2.36645363 146.79956897 -5.1484375 147.6796875 C-5.75945312 147.78539062 -6.37046875 147.89109375 -7 148 C-6.42651367 144.03515627 -5.21232336 141.36402678 -3.0625 138 C1.22365378 131.26010216 2.28694123 126.57902068 2.125 118.6875 C2.11597656 117.85154297 2.10695313 117.01558594 2.09765625 116.15429688 C2.07420989 114.10274031 2.03834266 112.05133223 2 110 C1.34 110 0.68 110 0 110 C-0.33 109.01 -0.66 108.02 -1 107 C-7.54819784 101.53097443 -16.53168779 102.71468096 -24.4765625 102.95703125 C-28.41807509 103.05699416 -32.1043466 102.65398046 -36 102 C-37.70717506 101.82185999 -39.4154704 101.65391263 -41.125 101.5 C-44.47138599 101.17862452 -47.72011654 100.76530614 -51 100 C-51.66328826 92.83648679 -49.80948564 88.0669586 -46 82 C-44.66666667 80.66666667 -43.33333333 79.33333333 -42 78 C-41.67 76.845 -41.34 75.69 -41 74.5 C-39.88245916 70.58860706 -38.80111379 69.80111379 -36 67 C-35.14878907 65.39493888 -34.34056503 63.76676614 -33.5625 62.125 C-32.06457725 58.97658829 -30.62211173 56.30279563 -28.3125 53.6875 C-26.05823255 51.06767567 -25.12485513 49.2138718 -24 46 C-21.86112768 41.50255247 -19.40560728 37.24576454 -16.8125 33 C-9.58122681 21.18105536 -9.58122681 21.18105536 -3 9 C-2.34 9 -1.68 9 -1 9 C-0.67 6.03 -0.34 3.06 0 0 Z " fill="#4FADF1" transform="translate(318,132)"/>
<path d="M0 0 C0.33 0 0.66 0 1 0 C1.22036864 3.85645121 0.60355101 6.49223216 -1 10 C-1.66 10 -2.32 10 -3 10 C-2.505 11.98 -2.505 11.98 -2 14 C-1.67 13.34 -1.34 12.68 -1 12 C-0.34 12.33 0.32 12.66 1 13 C0.72416343 19.85453872 -0.2738674 24.24143144 -4 30 C-4.67966676 31.66140763 -5.34938905 33.32700041 -6 35 C-6.66 35.99 -7.32 36.98 -8 38 C-7.979375 39.11375 -7.95875 40.2275 -7.9375 41.375 C-8.00732178 45.42466314 -8.90947562 46.65516099 -11 50 C-11.35543427 52.33006911 -11.6913753 54.66327016 -12 57 C-12.66 57.66 -13.32 58.32 -14 59 C-14.56452837 60.96173607 -15.05563537 62.94510426 -15.5 64.9375 C-16.32090174 68.60925071 -16.89422543 70.84133814 -19 74 C-18.95875 74.94875 -18.9175 75.8975 -18.875 76.875 C-19.03356924 80.8392309 -20.5379909 81.99942641 -23 85 C-23.16687448 87.58354218 -23.16687448 87.58354218 -23 90 C-23.66 90.99 -24.32 91.98 -25 93 C-25.9914628 95.27453232 -26.86860492 97.46889887 -27.46484375 99.87890625 C-28.22888991 102.90720601 -29.26990016 105.82810846 -30.28125 108.78125 C-31.0165151 110.94811845 -31.0165151 110.94811845 -31.47265625 113.00390625 C-32.07481361 115.28318336 -32.9539335 117.29592314 -33.9375 119.4375 C-34.29328125 120.22511719 -34.6490625 121.01273437 -35.015625 121.82421875 C-35.34046875 122.54222656 -35.6653125 123.26023437 -36 124 C-37.44498263 127.34627558 -38.34033623 130.41896813 -39 134 C-39.33 134.99 -39.66 135.98 -40 137 C-39.34 137 -38.68 137 -38 137 C-38 140.3 -38 143.6 -38 147 C-40.92267201 144.07732799 -41.18471437 140.97009156 -41.375 136.9375 C-41.27202772 125.35311861 -36.60397352 113.2966767 -32.84765625 102.46875 C-31.77383118 99.34129634 -30.8698373 96.18940343 -30 93 C-31.485 93.495 -31.485 93.495 -33 94 C-31.19435976 87.83589041 -29.27629225 81.73926605 -27.125 75.6875 C-26.51040046 73.94401613 -25.89581875 72.20052598 -25.28125 70.45703125 C-24.92933594 69.4613916 -24.57742187 68.46575195 -24.21484375 67.43994141 C-21.96163549 61.05977573 -19.7185878 54.67603481 -17.47491455 48.29251099 C-16.62617726 45.87834862 -15.77673002 43.46443684 -14.92724609 41.05053711 C-12.32910696 33.66318434 -9.74057779 26.27294517 -7.1953125 18.8671875 C-6.77813965 17.65434082 -6.3609668 16.44149414 -5.93115234 15.19189453 C-5.16056569 12.94639419 -4.39254093 10.70001258 -3.62744141 8.45263672 C-3.12349854 6.98334717 -3.12349854 6.98334717 -2.609375 5.484375 C-2.32030273 4.63584961 -2.03123047 3.78732422 -1.73339844 2.91308594 C-1 1 -1 1 0 0 Z " fill="#A84EE7" transform="translate(218,125)"/>
<path d="M0 0 C1.03065079 -0.005476 1.03065079 -0.005476 2.0821228 -0.01106262 C4.33015446 -0.01910179 6.57745032 -0.00561863 8.82543945 0.0090332 C10.39768981 0.00955243 11.96994083 0.0090323 13.54219055 0.00752258 C16.82624081 0.007612 20.110044 0.0179814 23.39404297 0.03613281 C27.60067633 0.05887523 31.80695096 0.05935066 36.01362896 0.05261517 C39.25557132 0.04927322 42.49743203 0.05590858 45.7393589 0.0657444 C47.29068385 0.06958858 48.84201789 0.07074786 50.39334679 0.06915855 C52.55928236 0.06878734 54.72475853 0.08142145 56.890625 0.09765625 C58.73759224 0.10456734 58.73759224 0.10456734 60.62187195 0.11161804 C63.58315566 0.35831347 65.26177842 0.81510449 67.7512207 2.37231445 C67.0912207 2.70231445 66.4312207 3.03231445 65.7512207 3.37231445 C65.4212207 4.36231445 65.0912207 5.35231445 64.7512207 6.37231445 C64.08477539 6.21891602 63.41833008 6.06551758 62.73168945 5.9074707 C59.18447901 5.27055349 55.65565119 5.01618379 52.0637207 4.80981445 C51.35836182 4.76808105 50.65300293 4.72634766 49.92626953 4.68334961 C40.21218482 3.83527002 40.21218482 3.83527002 30.7512207 5.37231445 C29.7818457 5.18668945 28.8124707 5.00106445 27.8137207 4.80981445 C24.43778626 4.3275381 23.6161332 4.79167307 20.7512207 6.37231445 C19.7612207 6.04231445 18.7712207 5.71231445 17.7512207 5.37231445 C15.41464138 5.48465 13.08073213 5.65877591 10.7512207 5.87231445 C4.08455404 6.48342556 4.08455404 6.48342556 0.7512207 5.37231445 C0.1324707 5.68168945 -0.4862793 5.99106445 -1.1237793 6.30981445 C-3.2487793 7.37231445 -3.2487793 7.37231445 -5.6862793 7.30981445 C-9.58143777 7.40481832 -11.91719609 9.29680494 -14.8737793 11.68481445 C-16.41022282 13.44507773 -16.41022282 13.44507773 -17.6237793 16.12231445 C-19.20723487 19.2892256 -21.01944592 21.92166128 -23.1081543 24.7590332 C-24.37113724 26.54537552 -25.36784386 28.37018846 -26.2487793 30.37231445 C-26.2487793 27.73231445 -26.2487793 25.09231445 -26.2487793 22.37231445 C-25.5887793 22.37231445 -24.9287793 22.37231445 -24.2487793 22.37231445 C-23.63918572 19.49851615 -23.24098515 16.95143076 -23.1862793 13.99731445 C-21.83528432 8.77346722 -18.67525761 6.28485067 -14.2487793 3.37231445 C-9.24886264 0.90842796 -5.66392784 -0.0028897 0 0 Z " fill="#879CEE" transform="translate(241.248779296875,112.627685546875)"/>
<path d="M0 0 C0.66 0 1.32 0 2 0 C2.53021982 5.03708828 1.14490524 8.36229343 -0.78125 12.875 C-2.31032884 16.79571497 -3.50994998 20.77450808 -4.6875 24.8125 C-4.90172607 25.54186768 -5.11595215 26.27123535 -5.33666992 27.02270508 C-8.43771635 37.76451236 -9.27002303 46.47744325 -5 57 C-3.7934375 57.185625 -3.7934375 57.185625 -2.5625 57.375 C-1.716875 57.58125 -0.87125 57.7875 0 58 C0.33 58.66 0.66 59.32 1 60 C6.33014166 62.40002125 11.68773123 62.43149678 17.4296875 62.6328125 C18.42001984 62.67437469 19.41035217 62.71593689 20.43069458 62.75875854 C23.57852782 62.88899808 26.72668039 63.00716647 29.875 63.125 C32.01565735 63.21144215 34.15628301 63.29867299 36.296875 63.38671875 C41.53091741 63.60028238 46.76527389 63.80395037 52 64 C52.33 64.66 52.66 65.32 53 66 C46.02584356 66.10178049 39.05188011 66.17162496 32.07714844 66.21972656 C29.70663291 66.23978826 27.33616655 66.26704426 24.96582031 66.30175781 C21.55000649 66.35051418 18.13484945 66.37302399 14.71875 66.390625 C13.14015198 66.42159271 13.14015198 66.42159271 11.52966309 66.45318604 C4.13721837 66.4554185 -1.43417352 65.39769321 -6.98828125 60.10546875 C-12.25764618 52.47343871 -14.89238677 46.35377662 -14 37 C-13.05127932 33.11712001 -11.71910633 29.42570751 -10.3125 25.6875 C-9.94890381 24.68509277 -9.58530762 23.68268555 -9.21069336 22.64990234 C-8.15718952 19.76006496 -7.08211133 16.87922616 -6 14 C-5.46342718 12.55082363 -4.92695411 11.10161033 -4.390625 9.65234375 C-1.21303286 1.21303286 -1.21303286 1.21303286 0 0 Z " fill="#CB62F2" transform="translate(186,218)"/>
<path d="M0 0 C0.66 0 1.32 0 2 0 C2.64868578 7.09598959 1.083692 10.34028851 -3.125 15.9375 C-4.31195217 17.59004087 -5.49524621 19.24521256 -6.67578125 20.90234375 C-7.34947754 21.84190918 -8.02317383 22.78147461 -8.71728516 23.74951172 C-13.8834126 31.10585619 -18.77650592 38.65166659 -23.73370361 46.14962769 C-28.7861915 53.78396138 -33.89187906 61.33717578 -39.3269043 68.70751953 C-42.0909257 72.49478948 -44.6010901 76.43061707 -47.140625 80.37109375 C-51.5492887 86.60435146 -51.5492887 86.60435146 -55.75 87.75 C-56.4925 87.8325 -57.235 87.915 -58 88 C-58 87.34 -58 86.68 -58 86 C-57.278125 85.649375 -56.55625 85.29875 -55.8125 84.9375 C-52.3269392 82.53633589 -51.16678945 80.09622548 -49.24609375 76.3984375 C-45.41408475 69.02272111 -40.51269281 62.42215484 -35.35546875 55.9296875 C-32.33948925 52.06982079 -30.21129501 48.84518003 -29 44 C-28.34 44 -27.68 44 -27 44 C-26.773125 43.29875 -26.54625 42.5975 -26.3125 41.875 C-25.02274925 39.04983168 -23.45372788 37.23643813 -21.421875 34.9296875 C-18.92923574 31.54681993 -17.30712088 27.69811357 -15.484375 23.92578125 C-13.62597556 20.26277814 -11.59952743 17.17720019 -9 14 C-8.34 14 -7.68 14 -7 14 C-6.731875 13.2575 -6.46375 12.515 -6.1875 11.75 C-5.04702351 9.10889655 -3.71322928 7.28430571 -2 5 C-1.28837557 3.35202764 -0.60968047 1.68834592 0 0 Z " fill="#A15AE1" transform="translate(282,317)"/>
<path d="M0 0 C0.66 0 1.32 0 2 0 C2.34464132 5.25578017 2.16156069 9.09862499 0.1875 14 C-2.02382995 19.52053849 -3.01801328 24.95632858 -3.87231445 30.81054688 C-4.548281 35.20872556 -5.70318442 39.03196511 -7.34692383 43.1628418 C-8.22437345 45.63118138 -8.44200188 47.95429868 -8.5625 50.5625 C-8.97103921 56.37817581 -10.3676031 61.40611998 -12.5 66.8125 C-14.01218214 70.71833729 -14.78027756 74.62570973 -15.5234375 78.73828125 C-16 81 -16 81 -17.1875 83.875 C-18.14108858 85.96166098 -18.14108858 85.96166098 -17.9375 88.1875 C-17.08735974 90.2729616 -17.08735974 90.2729616 -14.4375 91.25 C-13.2309375 91.62125 -13.2309375 91.62125 -12 92 C-12 92.66 -12 93.32 -12 94 C-15.6773705 93.79570164 -16.80084985 93.22067989 -19.3125 90.4375 C-22.94355327 83.04091 -20.41143464 75.58847677 -18.40234375 68.01171875 C-18.1323909 66.96259811 -17.86243805 65.91347748 -17.58430481 64.83256531 C-16.7112103 61.44842393 -15.82464129 58.06798343 -14.9375 54.6875 C-14.33738983 52.37407487 -13.73810705 50.06043495 -13.13964844 47.74658203 C-11.96575402 43.21336809 -10.78673151 38.68154095 -9.60302734 34.15087891 C-8.256706 28.99402003 -6.92819837 23.832913 -5.61328125 18.66796875 C-4.99221684 16.23697167 -4.37112646 13.80598123 -3.75 11.375 C-3.47534912 10.29436279 -3.20069824 9.21372559 -2.91772461 8.1003418 C-2.67159424 7.14683838 -2.42546387 6.19333496 -2.171875 5.2109375 C-1.9665918 4.40962402 -1.76130859 3.60831055 -1.54980469 2.78271484 C-1 1 -1 1 0 0 Z " fill="#BA5CE5" transform="translate(234,311)"/>
<path d="M0 0 C0.33 0 0.66 0 1 0 C1.22036864 3.85645121 0.60355101 6.49223216 -1 10 C-1.66 10 -2.32 10 -3 10 C-2.67 11.32 -2.34 12.64 -2 14 C-1.67 13.34 -1.34 12.68 -1 12 C-0.34 12.33 0.32 12.66 1 13 C0.72416343 19.85453872 -0.2738674 24.24143144 -4 30 C-4.67966676 31.66140763 -5.34938905 33.32700041 -6 35 C-6.66 35.99 -7.32 36.98 -8 38 C-7.87625 39.546875 -7.87625 39.546875 -7.75 41.125 C-8.06005224 45.93080975 -9.76526856 48.03400198 -12.53125 51.84375 C-14.29175644 54.42832328 -15.2255953 56.97982169 -16 60 C-16.66 60 -17.32 60 -18 60 C-18.495 62.475 -18.495 62.475 -19 65 C-20.485 65.495 -20.485 65.495 -22 66 C-21.52008348 58.06138095 -18.7223011 51.03454256 -16 43.625 C-15.25280596 41.56393474 -14.50849702 39.50184242 -13.76437378 37.43966675 C-13.2589073 36.0393629 -12.75249431 34.63940036 -12.24514771 33.23977661 C-9.30442107 25.11518805 -6.5129329 16.94027116 -3.73046875 8.76025391 C-3.38371094 7.74882324 -3.03695312 6.73739258 -2.6796875 5.6953125 C-2.37788574 4.80859863 -2.07608398 3.92188477 -1.76513672 3.00830078 C-1 1 -1 1 0 0 Z " fill="#8B80E4" transform="translate(218,125)"/>
<path d="M0 0 C0.33 0.99 0.66 1.98 1 3 C0.34 3.66 -0.32 4.32 -1 5 C-1 5.99 -1 6.98 -1 8 C-0.34 7.67 0.32 7.34 1 7 C0.37731736 10.13549276 -0.67450246 12.32940611 -2.43676758 14.98657227 C-3.19809746 16.14280846 -3.19809746 16.14280846 -3.97480774 17.32240295 C-4.5258165 18.14542404 -5.07682526 18.96844513 -5.64453125 19.81640625 C-6.21072678 20.66927719 -6.7769223 21.52214813 -7.36027527 22.40086365 C-8.55867241 24.20234949 -9.7600272 26.00187082 -10.96411133 27.79956055 C-12.80390489 30.54965217 -14.63000899 33.30848072 -16.45507812 36.06835938 C-17.62157772 37.81825397 -18.78886932 39.56762092 -19.95703125 41.31640625 C-20.50196732 42.14145157 -21.04690338 42.96649689 -21.60835266 43.81654358 C-22.38386726 44.96805153 -22.38386726 44.96805153 -23.17504883 46.14282227 C-23.62503738 46.81692642 -24.07502594 47.49103058 -24.53865051 48.18556213 C-26.15353898 50.19063676 -27.88820406 51.5419894 -30 53 C-29.72457562 46.80295141 -28.8922084 43.01890031 -25 38 C-21.60990937 33.31346141 -18.27639955 28.6785674 -15.5625 23.5625 C-13.09264894 18.94885083 -10.05596249 14.85744956 -6.9375 10.6640625 C-4.42836738 7.21400515 -2.20421722 3.65073477 0 0 Z " fill="#6F89EF" transform="translate(313,271)"/>
<path d="M0 0 C0.33 0 0.66 0 1 0 C1 2.31 1 4.62 1 7 C1.66 7 2.32 7 3 7 C2.48355302 11.93027252 0.85547738 15.54066705 -1.67578125 19.71875 C-2.04221237 20.33971558 -2.40864349 20.96068115 -2.78617859 21.60046387 C-3.95290423 23.57230377 -5.13261222 25.53601417 -6.3125 27.5 C-7.0939242 28.81852169 -7.87453104 30.13752814 -8.65429688 31.45703125 C-18.48236133 48.02353308 -18.48236133 48.02353308 -23 50 C-24.37086915 51.29470975 -25.71340837 52.62150897 -27 54 C-24.47862267 45.59540891 -20.09196025 38.38947804 -15.57788086 30.94091797 C-8.9917795 20.13533401 -8.9917795 20.13533401 -3 9 C-2.34 9 -1.68 9 -1 9 C-0.67 6.03 -0.34 3.06 0 0 Z " fill="#49B0F3" transform="translate(318,132)"/>
<path d="M0 0 C0.66 0 1.32 0 2 0 C2.53021982 5.03708828 1.14490524 8.36229343 -0.78125 12.875 C-2.31032884 16.79571497 -3.50994998 20.77450808 -4.6875 24.8125 C-4.90172607 25.54186768 -5.11595215 26.27123535 -5.33666992 27.02270508 C-7.16652584 33.36119763 -8.12427594 38.70247397 -8.0625 45.3125 C-8.05347656 46.56675781 -8.04445312 47.82101562 -8.03515625 49.11328125 C-8.02355469 50.06589844 -8.01195312 51.01851563 -8 52 C-8.99 51.01 -9.98 50.02 -11 49 C-11.99 49.495 -11.99 49.495 -13 50 C-15.83091167 41.50726499 -13.34939965 33.75838725 -10.3125 25.6875 C-9.94890381 24.68509277 -9.58530762 23.68268555 -9.21069336 22.64990234 C-8.15718952 19.76006496 -7.08211133 16.87922616 -6 14 C-5.46342718 12.55082363 -4.92695411 11.10161033 -4.390625 9.65234375 C-1.21303286 1.21303286 -1.21303286 1.21303286 0 0 Z " fill="#C769F3" transform="translate(186,218)"/>
<path d="M0 0 C0.144375 0.61875 0.28875 1.2375 0.4375 1.875 C0.93152225 4.03258322 0.93152225 4.03258322 2 6 C-0.31 9.96 -2.62 13.92 -5 18 C6.55 18 18.1 18 30 18 C30 18.33 30 18.66 30 19 C20.1 19.33 10.2 19.66 0 20 C3.96 20.33 7.92 20.66 12 21 C7.01733441 24.32177706 2.19294332 23.11651851 -3.4375 22 C-4.95977467 21.67331214 -6.4811541 21.34227513 -8 21 C-8.66044602 13.86718302 -6.807125 9.03777853 -3 3 C-1.33203125 1.20703125 -1.33203125 1.20703125 0 0 Z " fill="#6190E9" transform="translate(275,211)"/>
<path d="M0 0 C0.66 0 1.32 0 2 0 C1.7168444 2.08450717 1.42314331 4.16758367 1.125 6.25 C0.96257812 7.41015625 0.80015625 8.5703125 0.6328125 9.765625 C0.07185326 12.63274999 -0.58380469 14.49608054 -2 17 C-4.15372019 21.99786743 -5.28449802 26.5826279 -6 32 C-6.37125 32.886875 -6.7425 33.77375 -7.125 34.6875 C-8.14084484 36.92921285 -8.14084484 36.92921285 -7.9375 39.1875 C-7.08735974 41.2729616 -7.08735974 41.2729616 -4.4375 42.25 C-3.633125 42.4975 -2.82875 42.745 -2 43 C-2 43.66 -2 44.32 -2 45 C-5.6773705 44.79570164 -6.80084985 44.22067989 -9.3125 41.4375 C-12.82652325 34.2793045 -10.57443886 27.29978214 -8.5 20 C-8.26152344 19.12988281 -8.02304688 18.25976562 -7.77734375 17.36328125 C-7.193891 15.23951325 -6.60133866 13.11875921 -6 11 C-4.68 11.33 -3.36 11.66 -2 12 C-1.34 8.04 -0.68 4.08 0 0 Z " fill="#B54EE1" transform="translate(224,360)"/>
<path d="M0 0 C0.71873795 -0.0004985 1.43747589 -0.00099701 2.17799377 -0.00151062 C3.69689704 0.00082791 5.21580431 0.01054358 6.73461914 0.02709961 C9.05455362 0.05066087 11.37333588 0.04766326 13.69335938 0.04101562 C15.17057974 0.04659382 16.64779528 0.05370459 18.125 0.0625 C18.81677841 0.06158859 19.50855682 0.06067719 20.22129822 0.05973816 C23.85152352 0.11291685 26.53858349 0.38273474 29.62890625 2.36328125 C28.96890625 2.69328125 28.30890625 3.02328125 27.62890625 3.36328125 C27.29890625 4.35328125 26.96890625 5.34328125 26.62890625 6.36328125 C25.96246094 6.20988281 25.29601562 6.05648437 24.609375 5.8984375 C21.06216456 5.26152029 17.53333674 5.00715059 13.94140625 4.80078125 C12.88336792 4.73818115 12.88336792 4.73818115 11.80395508 4.67431641 C2.08987037 3.82623682 2.08987037 3.82623682 -7.37109375 5.36328125 C-8.36109375 4.70328125 -9.35109375 4.04328125 -10.37109375 3.36328125 C-7.68190068 -0.45920107 -4.27268005 -0.05671685 0 0 Z " fill="#51B6F7" transform="translate(279.37109375,112.63671875)"/>
<path d="M0 0 C12.54 0 25.08 0 38 0 C38.495 1.485 38.495 1.485 39 3 C32.17587475 5.59966676 25.22876697 5.4031608 18 5 C17.34 4.67 16.68 4.34 16 4 C16 3.34 16 2.68 16 2 C14.77023437 2.03480469 14.77023437 2.03480469 13.515625 2.0703125 C11.89914062 2.09738281 11.89914062 2.09738281 10.25 2.125 C8.64898437 2.15980469 8.64898437 2.15980469 7.015625 2.1953125 C4 2 4 2 0 0 Z " fill="#57A1F5" transform="translate(271,230)"/>
<path d="M0 0 C0.66 0.33 1.32 0.66 2 1 C0.20132946 7.5028858 -1.91832618 13.87516453 -4.125 20.25 C-5.04504032 22.95192041 -5.04504032 22.95192041 -5.5 25.625 C-6.27601255 29.31105963 -7.91837746 31.87756619 -10 35 C-10 35.825 -10 36.65 -10 37.5 C-10 40 -10 40 -12 43 C-12.69313908 44.65583225 -13.36474424 46.32110979 -14 48 C-14.33 48 -14.66 48 -15 48 C-13.88536942 38.41417702 -11.7109809 29.18020816 -7.91796875 20.30078125 C-6.57370452 16.93154026 -5.78605963 13.53726831 -5 10 C-4.34 10 -3.68 10 -3 10 C-2.690625 8.72125 -2.38125 7.4425 -2.0625 6.125 C-1.52394756 3.89898325 -1.0263 2.05260001 0 0 Z " fill="#906AE7" transform="translate(205,175)"/>
<path d="M0 0 C0.66 0.33 1.32 0.66 2 1 C1.35759687 4.50273454 -0.05262971 6.89468064 -2.01953125 9.84375 C-2.93508789 11.21853516 -2.93508789 11.21853516 -3.86914062 12.62109375 C-4.83110352 14.04615234 -4.83110352 14.04615234 -5.8125 15.5 C-6.44220703 16.45003906 -7.07191406 17.40007812 -7.72070312 18.37890625 C-15.17548025 29.50240371 -15.17548025 29.50240371 -19.75 30.75 C-20.86375 30.87375 -20.86375 30.87375 -22 31 C-22 30.34 -22 29.68 -22 29 C-21.278125 28.649375 -20.55625 28.29875 -19.8125 27.9375 C-16.3269392 25.53633589 -15.16678945 23.09622548 -13.24609375 19.3984375 C-9.73281835 12.63620837 -5.41445818 5.41445818 0 0 Z " fill="#AE4FE3" transform="translate(246,374)"/>
<path d="M0 0 C0.33 0.66 0.66 1.32 1 2 C1.99 1.67 2.98 1.34 4 1 C3.35927259 4.65280677 2.36656091 7.96820587 1.0625 11.4375 C-0.36108853 15.2729957 -1.73148029 19.10987288 -3 23 C-3.54085935 24.62526888 -4.08257652 26.25025247 -4.625 27.875 C-4.88539063 28.65617187 -5.14578125 29.43734375 -5.4140625 30.2421875 C-5.60742188 30.82226562 -5.80078125 31.40234375 -6 32 C-6.33 31.01 -6.66 30.02 -7 29 C-7.99 29.33 -8.98 29.66 -10 30 C-7.98086853 23.0449018 -5.73400143 16.19969087 -3.3125 9.375 C-2.83200195 8.01181641 -2.83200195 8.01181641 -2.34179688 6.62109375 C-1.56326686 4.41332207 -0.78264756 2.20631463 0 0 Z " fill="#B16CE4" transform="translate(195,189)"/>
<path d="M0 0 C0.66 0 1.32 0 2 0 C2.90422863 7.75308904 0.18024959 11.72551916 -4.3125 17.875 C-5.20485352 19.15503906 -5.20485352 19.15503906 -6.11523438 20.4609375 C-10.51765812 26.67843875 -10.51765812 26.67843875 -14 29 C-12.72887283 24.01035158 -11.06267525 19.85582921 -8.5625 15.3125 C-7.96566406 14.21550781 -7.36882812 13.11851562 -6.75390625 11.98828125 C-5.29383333 9.50062917 -3.74050414 7.28881324 -2 5 C-1.28837557 3.35202764 -0.60968047 1.68834592 0 0 Z " fill="#887CEB" transform="translate(282,317)"/>
<path d="M0 0 C0.66 0.66 1.32 1.32 2 2 C2.99 1.34 3.98 0.68 5 0 C4.7834375 0.83917969 4.7834375 0.83917969 4.5625 1.6953125 C2.83322981 9.16479903 2.80184354 16.35996753 3 24 C2.01 23.01 1.02 22.02 0 21 C-0.66 21.33 -1.32 21.66 -2 22 C-4.52505839 14.42482482 -2.92657661 7.21192092 0 0 Z " fill="#C55BE7" transform="translate(175,246)"/>
<path d="M0 0 C0.33 0 0.66 0 1 0 C1 2.31 1 4.62 1 7 C1.66 7 2.32 7 3 7 C2.54979057 12.85272256 -0.03839227 17.08220119 -3 22 C-3.99 22 -4.98 22 -6 22 C-8.17032476 23.43990623 -8.17032476 23.43990623 -10 25 C-9.40165275 20.85701333 -7.99335715 17.81805623 -5.9375 14.1875 C-5.11572266 12.72376953 -5.11572266 12.72376953 -4.27734375 11.23046875 C-3.85582031 10.49441406 -3.43429687 9.75835937 -3 9 C-2.34 9 -1.68 9 -1 9 C-0.67 6.03 -0.34 3.06 0 0 Z " fill="#3FB4F0" transform="translate(318,132)"/>
<path d="M0 0 C0.33 0 0.66 0 1 0 C1.22036864 3.85645121 0.60355101 6.49223216 -1 10 C-1.66 10 -2.32 10 -3 10 C-2.95359375 10.86882812 -2.9071875 11.73765625 -2.859375 12.6328125 C-2.6453895 19.46506388 -2.54503049 23.52675175 -7 29 C-8.15276022 31.62867916 -9.06312658 34.28306708 -10 37 C-13.34779021 26.95662937 -4.77070354 10.36179152 -1 1 C-0.67 0.67 -0.34 0.34 0 0 Z " fill="#9996EB" transform="translate(218,125)"/>
<path d="M0 0 C0.33 0 0.66 0 1 0 C2.35611961 8.94191368 3.43529497 16.15956703 -1.6875 24 C-5.18729607 28.7090492 -5.18729607 28.7090492 -8.26953125 29.8125 C-8.84058594 29.874375 -9.41164063 29.93625 -10 30 C-9.42651367 26.03515627 -8.21232336 23.36402678 -6.0625 20 C-2.84737829 14.94428036 -0.85648113 10.70601413 -0.375 4.6875 C-0.30023438 3.80449219 -0.22546875 2.92148438 -0.1484375 2.01171875 C-0.09945313 1.34785156 -0.05046875 0.68398437 0 0 Z " fill="#4FA1EF" transform="translate(321,250)"/>
<path d="M0 0 C0.99 0 1.98 0 3 0 C2.690625 0.598125 2.38125 1.19625 2.0625 1.8125 C-0.37513406 6.83115835 -1.61819186 12.43643104 -2.4375 17.9375 C-3.05624016 21.30619642 -4.05176575 24.3837928 -5.17578125 27.61328125 C-5.74028834 29.24794397 -6.27814582 30.89198486 -6.79296875 32.54296875 C-7.17388672 33.75919922 -7.17388672 33.75919922 -7.5625 35 C-7.79066406 35.7425 -8.01882812 36.485 -8.25390625 37.25 C-9 39 -9 39 -11 40 C-9.9644143 35.14071326 -8.84250311 30.34644509 -7.5 25.5625 C-6.51029935 22.01442318 -5.6736809 18.49603481 -5 14.875 C-2.67761858 2.67761858 -2.67761858 2.67761858 0 0 Z " fill="#A64EE4" transform="translate(236,319)"/>
<path d="M0 0 C0.721875 0.144375 1.44375 0.28875 2.1875 0.4375 C3.5796875 0.7159375 3.5796875 0.7159375 5 1 C6.66666667 1.33333333 8.33333333 1.66666667 10 2 C10 1.34 10 0.68 10 0 C10.99 0 11.98 0 13 0 C13 0.66 13 1.32 13 2 C13.61931396 2.05534912 14.23862793 2.11069824 14.87670898 2.16772461 C17.73039529 2.42333022 20.58394734 2.68040676 23.4375 2.9375 C24.41138672 3.02451172 25.38527344 3.11152344 26.38867188 3.20117188 C32.26833412 3.73211128 38.13489806 4.32675665 44 5 C44 5.33 44 5.66 44 6 C38.85833787 5.93084336 33.71746736 5.84274272 28.57641602 5.73754883 C26.82976101 5.70442233 25.08300212 5.67635263 23.33618164 5.65356445 C20.8161213 5.61979119 18.29700248 5.56746653 15.77734375 5.51171875 C15.00414291 5.50532883 14.23094208 5.4989389 13.43431091 5.49235535 C8.27384281 5.35436328 4.62837737 4.30212864 0 2 C0 1.34 0 0.68 0 0 Z " fill="#B056EC" transform="translate(186,276)"/>
<path d="M0 0 C0.33 0.99 0.66 1.98 1 3 C0.34 3.66 -0.32 4.32 -1 5 C-1 5.99 -1 6.98 -1 8 C-0.34 7.67 0.32 7.34 1 7 C0.43628586 10.26954202 -0.49962266 11.82575883 -3 14 C-3.33 13.67 -3.66 13.34 -4 13 C-4.763125 13.763125 -5.52625 14.52625 -6.3125 15.3125 C-7.69826907 16.69826907 -9.09127161 18.08031902 -10.5625 19.375 C-12.85804535 21.96996431 -14.33958757 24.96545314 -16 28 C-16.33 27.01 -16.66 26.02 -17 25 C-15.77734375 22.8359375 -15.77734375 22.8359375 -13.9375 20.375 C-13.29039062 19.49070312 -12.64328125 18.60640625 -11.9765625 17.6953125 C-10.99816406 16.36113281 -10.99816406 16.36113281 -10 15 C-8.92724153 13.42359905 -7.86396733 11.84068135 -6.8125 10.25 C-6.33167969 9.52425781 -5.85085938 8.79851562 -5.35546875 8.05078125 C-4.90816406 7.37402344 -4.46085937 6.69726562 -4 6 C-3.20889863 4.81212333 -2.4173081 3.62457213 -1.625 2.4375 C-1.08875 1.633125 -0.5525 0.82875 0 0 Z " fill="#619CF0" transform="translate(313,271)"/>
<path d="M0 0 C9.57 0 19.14 0 29 0 C29.33 0.99 29.66 1.98 30 3 C26.11251964 3.95851375 22.8060155 3.99360721 18.82421875 3.66015625 C17.66728516 3.56669922 16.51035156 3.47324219 15.31835938 3.37695312 C14.12017578 3.27318359 12.92199219 3.16941406 11.6875 3.0625 C10.46998047 2.96259766 9.25246094 2.86269531 7.99804688 2.75976562 C4.9981253 2.51271326 1.99888873 2.25924157 -1 2 C-0.67 1.34 -0.34 0.68 0 0 Z " fill="#80B1F9" transform="translate(243,113)"/>
<path d="M0 0 C0.734375 1.578125 0.734375 1.578125 1 4 C-0.15609506 6.41728967 -1.31475499 8.51357371 -2.75 10.75 C-3.1109375 11.35199219 -3.471875 11.95398438 -3.84375 12.57421875 C-4.921875 14.296875 -4.921875 14.296875 -7 17 C-7.99 17 -8.98 17 -10 17 C-6.66507177 0 -6.66507177 0 0 0 Z " fill="#62A0F2" transform="translate(285,198)"/>
<path d="M0 0 C0.66 0.33 1.32 0.66 2 1 C1.57847656 1.80824219 1.15695312 2.61648438 0.72265625 3.44921875 C0.17480469 4.51785156 -0.37304688 5.58648437 -0.9375 6.6875 C-1.48277344 7.74324219 -2.02804687 8.79898437 -2.58984375 9.88671875 C-3.8470576 12.66234047 -4.56069569 15.00272126 -5 18 C-5.33 17.34 -5.66 16.68 -6 16 C-6.66 16 -7.32 16 -8 16 C-8.061875 16.53625 -8.12375 17.0725 -8.1875 17.625 C-9.3785088 21.10641033 -11.58753467 23.22566487 -14 26 C-14.33 26.66 -14.66 27.32 -15 28 C-15.66 28 -16.32 28 -17 28 C-16.05063792 25.15191376 -15.29827565 23.28474562 -13.10546875 21.19140625 C-10.70135788 18.6891684 -9.51833415 16.32903685 -8.0625 13.1875 C-5.74776372 8.37544009 -3.2601818 4.2190588 0 0 Z " fill="#9063E6" transform="translate(273,331)"/>
<path d="M0 0 C1.10859375 0.00322266 2.2171875 0.00644531 3.359375 0.00976562 C4.50148437 0.01814453 5.64359375 0.02652344 6.8203125 0.03515625 C8.56828125 0.04192383 8.56828125 0.04192383 10.3515625 0.04882812 C13.21619895 0.06056844 16.08072883 0.07699055 18.9453125 0.09765625 C17.1328125 1.66015625 17.1328125 1.66015625 14.9453125 3.09765625 C13.9553125 2.76765625 12.9653125 2.43765625 11.9453125 2.09765625 C9.60873317 2.20999179 7.27482393 2.3841177 4.9453125 2.59765625 C-1.72135417 3.20876736 -1.72135417 3.20876736 -5.0546875 2.09765625 C-6.01375 2.59265625 -6.01375 2.59265625 -6.9921875 3.09765625 C-9.0546875 4.09765625 -9.0546875 4.09765625 -11.3046875 3.72265625 C-11.8821875 3.51640625 -12.4596875 3.31015625 -13.0546875 3.09765625 C-12.7246875 2.43765625 -12.3946875 1.77765625 -12.0546875 1.09765625 C-8.01498695 0.16618082 -4.13327163 -0.02130552 0 0 Z " fill="#6E98F3" transform="translate(247.0546875,115.90234375)"/>
<path d="M0 0 C0.144375 0.598125 0.28875 1.19625 0.4375 1.8125 C0.8872439 3.56150404 1.42892341 5.28677023 2 7 C1.0625 10.1875 1.0625 10.1875 0 13 C-0.66 13 -1.32 13 -2 13 C-2.33 14.65 -2.66 16.3 -3 18 C-3.99 18.33 -4.98 18.66 -6 19 C-5.55230183 12.95607475 -4.49961114 4.49961114 0 0 Z " fill="#A883F0" transform="translate(202,172)"/>
<path d="M0 0 C1.09267403 3.32419143 0.88036715 5.60602158 0.125 9 C-0.05804688 9.845625 -0.24109375 10.69125 -0.4296875 11.5625 C-0.61789063 12.366875 -0.80609375 13.17125 -1 14 C-1.12632812 14.7425 -1.25265625 15.485 -1.3828125 16.25 C-1.58648437 16.8275 -1.79015625 17.405 -2 18 C-2.99 18.33 -3.98 18.66 -5 19 C-5 20.32 -5 21.64 -5 23 C-5.66 23 -6.32 23 -7 23 C-7.12117187 23.63808594 -7.24234375 24.27617187 -7.3671875 24.93359375 C-7.53476563 25.75988281 -7.70234375 26.58617187 -7.875 27.4375 C-8.03742188 28.26121094 -8.19984375 29.08492187 -8.3671875 29.93359375 C-8.57601562 30.61550781 -8.78484375 31.29742187 -9 32 C-9.99 32.495 -9.99 32.495 -11 33 C-8.2288775 21.74535337 -4.39446585 10.72333772 0 0 Z " fill="#AD5AEB" transform="translate(191,212)"/>
<path d="M0 0 C1.30294637 2.60589274 0.76105665 4.19717936 -0.05859375 6.9140625 C-1.94043471 11.0837848 -4.94554063 14.62401859 -8 18 C-8.33 18 -8.66 18 -9 18 C-9 10.43740694 -4.54617834 5.7267349 0 0 Z " fill="#838DED" transform="translate(292,306)"/>
<path d="M0 0 C0.66 0 1.32 0 2 0 C2.4946164 7.54290017 0.90617391 13.058915 -2 20 C-2.33 20 -2.66 20 -3 20 C-2.88543872 17.60325733 -2.75871281 15.20818782 -2.625 12.8125 C-2.5940625 12.13896484 -2.563125 11.46542969 -2.53125 10.77148438 C-2.29896078 6.80321025 -1.71612524 3.59270121 0 0 Z " fill="#BC65EF" transform="translate(234,311)"/>
<path d="M0 0 C0.66 0 1.32 0 2 0 C1.35983442 4.00588464 -0.65358474 6.84724005 -2.875 10.1875 C-3.57367188 11.25355469 -4.27234375 12.31960938 -4.9921875 13.41796875 C-7 16 -7 16 -10 17 C-9.67 15.35 -9.34 13.7 -9 12 C-8.34 12 -7.68 12 -7 12 C-6.7525 11.2575 -6.505 10.515 -6.25 9.75 C-4.90095207 6.78209456 -3.31949313 5.24467077 -1 3 C-0.67 2.01 -0.34 1.02 0 0 Z " fill="#A26CE9" transform="translate(265,347)"/>
<path d="M0 0 C0.33 0 0.66 0 1 0 C1.59440798 6.68708979 -0.55831922 11.84186534 -3 18 C-3.33 18.99 -3.66 19.98 -4 21 C-4.99 21 -5.98 21 -7 21 C-4.96192707 13.8821847 -2.59655258 6.93292719 0 0 Z " fill="#BF6BE2" transform="translate(184,221)"/>
<path d="M0 0 C0.66 0 1.32 0 2 0 C2.56674779 5.55412833 1.60677654 8.30443742 -1.61328125 12.6171875 C-3 14 -3 14 -6 15 C-5.979375 14.21625 -5.95875 13.4325 -5.9375 12.625 C-5.81315937 10.01885039 -5.81315937 10.01885039 -7 8 C-6.34 7.34 -5.68 6.68 -5 6 C-4.34 6.66 -3.68 7.32 -3 8 C-2.01 5.36 -1.02 2.72 0 0 Z " fill="#8878E9" transform="translate(208,163)"/>
<path d="M0 0 C4.78199238 0.09053686 9.34049425 0.55310632 14.08203125 1.23046875 C14.74203125 0.90046875 15.40203125 0.57046875 16.08203125 0.23046875 C18.20703125 0.66796875 18.20703125 0.66796875 20.08203125 1.23046875 C20.08203125 1.89046875 20.08203125 2.55046875 20.08203125 3.23046875 C21.07203125 3.56046875 22.06203125 3.89046875 23.08203125 4.23046875 C14.07312735 3.6520282 5.0755493 3.01761093 -3.91796875 2.23046875 C-1.91796875 0.23046875 -1.91796875 0.23046875 0 0 Z " fill="#9F55E6" transform="translate(212.91796875,277.76953125)"/>
<path d="M0 0 C0.33 0 0.66 0 1 0 C1.12456738 6.35293627 0.47778343 11.16992134 -2 17 C-2.37125 17.928125 -2.7425 18.85625 -3.125 19.8125 C-3.41375 20.534375 -3.7025 21.25625 -4 22 C-4.33 22 -4.66 22 -5 22 C-3.18181818 6.36363636 -3.18181818 6.36363636 0 0 Z " fill="#9C5EE7" transform="translate(195,201)"/>
<path d="M0 0 C0.33 0 0.66 0 1 0 C1.3690205 9.41002278 1.3690205 9.41002278 -1 14 C-0.34 14 0.32 14 1 14 C1 17.3 1 20.6 1 24 C-2.16251855 20.83748145 -2.15295268 17.58914319 -2.1875 13.25 C-2.15249147 8.53084984 -1.33760292 4.51440987 0 0 Z " fill="#B64DEA" transform="translate(179,248)"/>
<path d="M0 0 C0.66 0.33 1.32 0.66 2 1 C1.74347067 7.49019204 1.26267356 11.96229489 -3 17 C-3.66 17.33 -4.32 17.66 -5 18 C-4.27595226 13.95295419 -3.16553713 10.10929598 -1.9375 6.1875 C-1.57527344 5.02605469 -1.21304688 3.86460937 -0.83984375 2.66796875 C-0.56269531 1.78753906 -0.28554687 0.90710938 0 0 Z " fill="#7D84EC" transform="translate(217,137)"/>
<path d="M0 0 C5.94 0 11.88 0 18 0 C18 0.66 18 1.32 18 2 C20.64 2 23.28 2 26 2 C26 2.33 26 2.66 26 3 C17.20294908 3.38064163 8.68836995 2.20731692 0 1 C0 0.67 0 0.34 0 0 Z " fill="#62A5F7" transform="translate(271,230)"/>
<path d="M0 0 C0.33 0.66 0.66 1.32 1 2 C1.99 1.67 2.98 1.34 4 1 C3.34309381 4.78239671 2.279869 8.21841526 0.9375 11.8125 C0.57527344 12.78832031 0.21304688 13.76414063 -0.16015625 14.76953125 C-0.43730469 15.50558594 -0.71445313 16.24164063 -1 17 C-1.90109101 13.81967879 -1.795211 12.18084399 -1 9 C-1.185625 8.360625 -1.37125 7.72125 -1.5625 7.0625 C-2.16452755 4.22437012 -1.21266333 2.56799293 0 0 Z " fill="#AA76EF" transform="translate(195,189)"/>
<path d="M0 0 C3.93673644 1.31224548 6.22719294 2.91910327 9 6 C8.67 6.66 8.34 7.32 8 8 C6.51800098 7.55090939 5.03944764 7.09043436 3.5625 6.625 C2.73878906 6.36976563 1.91507812 6.11453125 1.06640625 5.8515625 C-1 5 -1 5 -2 3 C-1.01 3 -0.02 3 1 3 C0.67 2.01 0.34 1.02 0 0 Z " fill="#48ACEE" transform="translate(309,230)"/>
<path d="M0 0 C0.33 0.99 0.66 1.98 1 3 C-0.58203125 5.8828125 -0.58203125 5.8828125 -2.8125 9.125 C-3.54082031 10.20007813 -4.26914062 11.27515625 -5.01953125 12.3828125 C-7 15 -7 15 -9 16 C-8.01498435 9.84365219 -3.93178725 4.63389212 0 0 Z " fill="#6CA1F2" transform="translate(309,283)"/>
<path d="M0 0 C6.6 0 13.2 0 20 0 C20.33 0.99 20.66 1.98 21 3 C16.07052311 3.10150789 11.43466881 2.74242572 6.5625 2 C4.70818359 1.7215625 4.70818359 1.7215625 2.81640625 1.4375 C1.88699219 1.293125 0.95757812 1.14875 0 1 C0 0.67 0 0.34 0 0 Z " fill="#58B9F7" transform="translate(289,230)"/>
<path d="M0 0 C0.99 0 1.98 0 3 0 C2.31583566 4.17576168 0.98634991 7.88080407 -0.5625 11.8125 C-1.01753906 12.97394531 -1.47257813 14.13539063 -1.94140625 15.33203125 C-2.29074219 16.21246094 -2.64007813 17.09289062 -3 18 C-3.33 18 -3.66 18 -4 18 C-4 15.36 -4 12.72 -4 10 C-3.34 10 -2.68 10 -2 10 C-1.855625 9.278125 -1.71125 8.55625 -1.5625 7.8125 C-1.04166667 5.20833333 -0.52083333 2.60416667 0 0 Z " fill="#90A1F7" transform="translate(219,125)"/>
<path d="M0 0 C-1.59043379 5.08938811 -4.7446951 8.87456643 -8 13 C-9 11 -9 11 -8.328125 8.90625 C-7.97234375 8.1121875 -7.6165625 7.318125 -7.25 6.5 C-6.90453125 5.7059375 -6.5590625 4.911875 -6.203125 4.09375 C-4.66540075 1.41771039 -3.19769013 0 0 0 Z " fill="#997DEA" transform="translate(277,333)"/>
<path d="M0 0 C-0.47846065 4.30614589 -1.65926381 6.24880549 -5 9 C-5.99 9.33 -6.98 9.66 -8 10 C-7.61508669 5.50934475 -5.14531178 0 0 0 Z " fill="#5CA4F2" transform="translate(319,270)"/>
<path d="M0 0 C0.556875 0.268125 1.11375 0.53625 1.6875 0.8125 C0.5428125 1.4621875 0.5428125 1.4621875 -0.625 2.125 C-4.23167082 4.38965377 -5.86381838 5.89562887 -7.75 9.75 C-9.28285791 12.75440151 -10.82148822 14.57917909 -13.3125 16.8125 C-11.70282536 11.17863875 -7.07493594 -0.57364345 0 0 Z " fill="#788EF0" transform="translate(231.3125,119.1875)"/>
<path d="M0 0 C2.97 0 5.94 0 9 0 C9 0.33 9 0.66 9 1 C12.63 1.33 16.26 1.66 20 2 C20 2.33 20 2.66 20 3 C13.4 3 6.8 3 0 3 C0 2.01 0 1.02 0 0 Z " fill="#87A8F3" transform="translate(234,113)"/>
<path d="M0 0 C1.134375 0.020625 2.26875 0.04125 3.4375 0.0625 C3.7675 1.0525 4.0975 2.0425 4.4375 3.0625 C0.19198144 4.15837955 -3.5217839 3.99115836 -7.875 3.625 C-9.12925781 3.52316406 -10.38351562 3.42132813 -11.67578125 3.31640625 C-12.62839844 3.23261719 -13.58101562 3.14882812 -14.5625 3.0625 C-14.5625 2.7325 -14.5625 2.4025 -14.5625 2.0625 C-13.85222656 2.00191406 -13.14195312 1.94132812 -12.41015625 1.87890625 C-11.03150391 1.75322266 -11.03150391 1.75322266 -9.625 1.625 C-8.70847656 1.54378906 -7.79195313 1.46257812 -6.84765625 1.37890625 C-3.46322053 0.91029207 -3.92605044 0.06887808 0 0 Z " fill="#6AAEF9" transform="translate(268.5625,112.9375)"/>
<path d="M0 0 C1.35862973 3.90480249 0.89469712 7.7101776 0.5625 11.75 C0.51029297 12.44738281 0.45808594 13.14476562 0.40429688 13.86328125 C0.27525928 15.57596203 0.13840386 17.28805066 0 19 C-0.33 17.68 -0.66 16.36 -1 15 C-1.66 15 -2.32 15 -3 15 C-2.69052329 13.06201479 -2.37731166 11.12462574 -2.0625 9.1875 C-1.88847656 8.10855469 -1.71445313 7.02960938 -1.53515625 5.91796875 C-1 3 -1 3 0 0 Z " fill="#B35CDE" transform="translate(231,320)"/>
<path d="M0 0 C0.33 0.99 0.66 1.98 1 3 C-0.07421875 4.578125 -0.07421875 4.578125 -1.6875 6.25 C-4.76526455 9.6147356 -6.86589944 12.97804124 -9 17 C-9.33 16.01 -9.66 15.02 -10 14 C-8.671875 11.66015625 -8.671875 11.66015625 -6.75 9.0625 C-6.12609375 8.20785156 -5.5021875 7.35320312 -4.859375 6.47265625 C-4.24578125 5.65667969 -3.6321875 4.84070313 -3 4 C-2.42765625 3.23558594 -1.8553125 2.47117187 -1.265625 1.68359375 C-0.63914062 0.85021484 -0.63914062 0.85021484 0 0 Z " fill="#6387ED" transform="translate(306,282)"/>
<path d="M0 0 C3.65943647 0.68907122 7.22441959 1.56821266 10.8125 2.5625 C12.27623047 2.96662109 12.27623047 2.96662109 13.76953125 3.37890625 C14.87361328 3.68634766 14.87361328 3.68634766 16 4 C16 4.33 16 4.66 16 5 C9.80112515 5.37952295 5.5522888 4.8352113 0 2 C0 1.34 0 0.68 0 0 Z " fill="#BA4EED" transform="translate(186,276)"/>
<path d="M0 0 C0.33 0 0.66 0 1 0 C0.45144652 4.571279 -0.41744803 8.67435795 -2 13 C-2.66 13 -3.32 13 -4 13 C-3.125 5.25 -3.125 5.25 -2 3 C-1.34 3 -0.68 3 0 3 C0 2.01 0 1.02 0 0 Z " fill="#B67CEB" transform="translate(194,195)"/>
<path d="M0 0 C0.99 0 1.98 0 3 0 C3.36923077 5.41538462 3.36923077 5.41538462 1.5 8.375 C1.005 8.91125 0.51 9.4475 0 10 C-1.125 3.375 -1.125 3.375 0 0 Z " fill="#A18BEA" transform="translate(204,163)"/>
<path d="M0 0 C2.0625 0.4375 2.0625 0.4375 4 1 C3.01 1.495 3.01 1.495 2 2 C1.67 2.99 1.34 3.98 1 5 C0.34 4.855625 -0.32 4.71125 -1 4.5625 C-4.65599551 3.87700084 -8.30622195 3.43824485 -12 3 C-12 2.67 -12 2.34 -12 2 C-11.21753906 1.93941406 -10.43507813 1.87882812 -9.62890625 1.81640625 C-8.61699219 1.73261719 -7.60507812 1.64882812 -6.5625 1.5625 C-5.55316406 1.48128906 -4.54382813 1.40007812 -3.50390625 1.31640625 C-1.06359221 1.26788532 -1.06359221 1.26788532 0 0 Z " fill="#42B6F3" transform="translate(305,114)"/>
<path d="M0 0 C0.66 0 1.32 0 2 0 C0.54955729 4.10958767 -1.51110752 7.43258745 -4 11 C-4.66 10.67 -5.32 10.34 -6 10 C-4.34643078 6.41726669 -2.32019297 3.19026533 0 0 Z " fill="#B15DE8" transform="translate(245,377)"/>
<path d="M0 0 C0.66 0 1.32 0 2 0 C0.54955729 4.10958767 -1.51110752 7.43258745 -4 11 C-5.0326802 8.21176345 -5.04509293 7.1322726 -4.0625 4.25 C-3.711875 3.5075 -3.36125 2.765 -3 2 C-2.01 2 -1.02 2 0 2 C0 1.34 0 0.68 0 0 Z " fill="#7390EA" transform="translate(297,301)"/>
<path d="M0 0 C3 3.75 3 3.75 3 6 C3.66 6 4.32 6 5 6 C5 7.98 5 9.96 5 12 C0.02368421 7.18421053 0.02368421 7.18421053 -0.0625 2.875 C-0.041875 1.92625 -0.02125 0.9775 0 0 Z " fill="#DF70F8" transform="translate(174,264)"/>
<path d="M0 0 C0.66 0 1.32 0 2 0 C0.58036591 5.67853635 -2.39363961 9.53174216 -6 14 C-6.33 13.34 -6.66 12.68 -7 12 C-6.21625 10.948125 -5.4325 9.89625 -4.625 8.8125 C-2.59491421 5.98303198 -1.10887021 3.32661064 0 0 Z " fill="#7C71E9" transform="translate(282,317)"/>
<path d="M0 0 C0.66 0.33 1.32 0.66 2 1 C-0.31 4.96 -2.62 8.92 -5 13 C-6 10 -6 10 -5.29296875 8.02734375 C-4.92816406 7.33769531 -4.56335938 6.64804688 -4.1875 5.9375 C-3.83042969 5.24527344 -3.47335937 4.55304688 -3.10546875 3.83984375 C-2 2 -2 2 0 0 Z " fill="#48AFEB" transform="translate(305,166)"/>
<path d="M0 0 C0.33 0 0.66 0 1 0 C1.19392201 5.52677733 0.7479503 9.75614911 -1 15 C-1.93826619 11.93312991 -2.01788333 9.54992204 -1.625 6.375 C-1.53476563 5.59898437 -1.44453125 4.82296875 -1.3515625 4.0234375 C-1 2 -1 2 0 0 Z " fill="#B170F2" transform="translate(241,285)"/>
<path d="M0 0 C0.75 1.625 0.75 1.625 1 4 C-0.9375 7.25 -0.9375 7.25 -3 10 C-3.75 8.375 -3.75 8.375 -4 6 C-2.0625 2.75 -2.0625 2.75 0 0 Z " fill="#5AAAF3" transform="translate(289,191)"/>
<path d="M0 0 C2 4 2 4 1.3125 6.6875 C0 9 0 9 -3 10 C-2.01 6.7 -1.02 3.4 0 0 Z " fill="#A17CDE" transform="translate(200,175)"/>
<path d="M0 0 C0.33 0 0.66 0 1 0 C1.218934 3.83134499 0.80266269 6.58442859 -1 10 C-1.99 10.33 -2.98 10.66 -4 11 C-3.5247412 9.35303396 -3.04468109 7.70745272 -2.5625 6.0625 C-2.29566406 5.14597656 -2.02882812 4.22945312 -1.75390625 3.28515625 C-1 1 -1 1 0 0 Z " fill="#888AD9" transform="translate(218,125)"/>
<path d="M0 0 C0.99 0 1.98 0 3 0 C3 0.66 3 1.32 3 2 C5.64 2.33 8.28 2.66 11 3 C11 3.33 11 3.66 11 4 C7.7 4 4.4 4 1 4 C0.67 2.68 0.34 1.36 0 0 Z " fill="#AA4BE5" transform="translate(196,276)"/>
<path d="M0 0 C0.89203125 0.01804687 1.7840625 0.03609375 2.703125 0.0546875 C3.71632813 0.08949219 3.71632813 0.08949219 4.75 0.125 C2.9375 1.6875 2.9375 1.6875 0.75 3.125 C-0.24 2.795 -1.23 2.465 -2.25 2.125 C-4.58299825 2.08545766 -6.91708189 2.08098268 -9.25 2.125 C-6.03817851 0.21891902 -3.71117397 -0.09766247 0 0 Z " fill="#629EF4" transform="translate(261.25,115.875)"/>
<path d="M0 0 C0.33 0.99 0.66 1.98 1 3 C-0.21484375 5.26171875 -0.21484375 5.26171875 -1.9375 7.6875 C-2.50339844 8.49574219 -3.06929688 9.30398438 -3.65234375 10.13671875 C-4.09707031 10.75160156 -4.54179687 11.36648438 -5 12 C-5.33 11.34 -5.66 10.68 -6 10 C-5.0390625 7.87109375 -5.0390625 7.87109375 -3.625 5.4375 C-3.16351563 4.63183594 -2.70203125 3.82617188 -2.2265625 2.99609375 C-1 1 -1 1 0 0 Z " fill="#5991EF" transform="translate(313,271)"/>
<path d="M0 0 C1.32 0.66 2.64 1.32 4 2 C3.67 3.98 3.34 5.96 3 8 C2.01 8.33 1.02 8.66 0 9 C0.020625 8.21625 0.04125 7.4325 0.0625 6.625 C0.18684063 4.01885039 0.18684063 4.01885039 -1 2 C-0.67 1.34 -0.34 0.68 0 0 Z " fill="#987CE2" transform="translate(202,169)"/>
<path d="M0 0 C0.33 0 0.66 0 1 0 C1 3.96 1 7.92 1 12 C0.67 12 0.34 12 0 12 C0 10.35 0 8.7 0 7 C-0.66 7 -1.32 7 -2 7 C-1.125 1.125 -1.125 1.125 0 0 Z " fill="#8D90E6" transform="translate(214,136)"/>
<path d="M0 0 C0.33 0.99 0.66 1.98 1 3 C-0.9375 6.1875 -0.9375 6.1875 -3 9 C-3.75 7.3125 -3.75 7.3125 -4 5 C-2.0625 2.25 -2.0625 2.25 0 0 Z " fill="#6E9EF1" transform="translate(273,219)"/>
<path d="M0 0 C0.66 0.66 1.32 1.32 2 2 C1.625 5.125 1.625 5.125 1 8 C0.01 8.33 -0.98 8.66 -2 9 C-1.125 2.25 -1.125 2.25 0 0 Z " fill="#A374D8" transform="translate(195,189)"/>
<path d="M0 0 C1 2 1 2 0.44140625 4.1640625 C0.15136719 4.97617188 -0.13867188 5.78828125 -0.4375 6.625 C-0.72496094 7.44226563 -1.01242188 8.25953125 -1.30859375 9.1015625 C-1.53675781 9.72804687 -1.76492187 10.35453125 -2 11 C-2.33 11 -2.66 11 -3 11 C-3 8.36 -3 5.72 -3 3 C-2.34 3 -1.68 3 -1 3 C-0.67 2.01 -0.34 1.02 0 0 Z " fill="#8A96F7" transform="translate(218,132)"/>
<path d="M0 0 C0.33 0 0.66 0 1 0 C1 2.97 1 5.94 1 9 C0.34 9 -0.32 9 -1 9 C-1.33 9.66 -1.66 10.32 -2 11 C-1.40049704 7.31733897 -0.75241109 3.65456815 0 0 Z " fill="#AD52E9" transform="translate(233,324)"/>
<path d="M0 0 C0.33 0 0.66 0 1 0 C3.27678571 8.03571429 3.27678571 8.03571429 2 12 C-0.13586678 8.79619983 -0.23132175 7.98060033 -0.125 4.3125 C-0.10695312 3.50425781 -0.08890625 2.69601562 -0.0703125 1.86328125 C-0.04710937 1.24839844 -0.02390625 0.63351562 0 0 Z " fill="#CE5DF4" transform="translate(175,258)"/>
</svg>
